<?xml version="1.0" encoding="UTF-8"?>
<svg xmlns="http://www.w3.org/2000/svg" xmlns:xlink="http://www.w3.org/1999/xlink" width="190.293pt" height="81.172pt" viewBox="0 0 190.293 81.172">
<defs>
<clipPath id="clip-0">
<path clip-rule="nonzero" d="M 3.320312 26.71875 L 45.839844 26.71875 L 45.839844 54.453125 L 3.320312 54.453125 Z M 3.320312 26.71875 "/>
</clipPath>
<clipPath id="clip-1">
<path clip-rule="nonzero" d="M 95 0 L 164 0 L 164 81.171875 L 95 81.171875 Z M 95 0 "/>
</clipPath>
<clipPath id="clip-2">
<path clip-rule="nonzero" d="M 135 0 L 190.292969 0 L 190.292969 81.171875 L 135 81.171875 Z M 135 0 "/>
</clipPath>
<clipPath id="clip-3">
<path clip-rule="nonzero" d="M 155 0 L 190.292969 0 L 190.292969 35 L 155 35 Z M 155 0 "/>
</clipPath>
<clipPath id="clip-4">
<path clip-rule="nonzero" d="M 167 0 L 190.292969 0 L 190.292969 23 L 167 23 Z M 167 0 "/>
</clipPath>
<clipPath id="clip-5">
<path clip-rule="nonzero" d="M 155 46 L 190.292969 46 L 190.292969 81.171875 L 155 81.171875 Z M 155 46 "/>
</clipPath>
<clipPath id="clip-6">
<path clip-rule="nonzero" d="M 167 58 L 190.292969 58 L 190.292969 81.171875 L 167 81.171875 Z M 167 58 "/>
</clipPath>
<clipPath id="clip-7">
<path clip-rule="nonzero" d="M 96 46 L 144 46 L 144 81.171875 L 96 81.171875 Z M 96 46 "/>
</clipPath>
<clipPath id="clip-8">
<path clip-rule="nonzero" d="M 96 58 L 132 58 L 132 81.171875 L 96 81.171875 Z M 96 58 "/>
</clipPath>
</defs>
<path fill-rule="nonzero" fill="rgb(50%, 50%, 50%)" fill-opacity="1" d="M 8.175781 51.675781 L 33.589844 51.675781 C 34.738281 51.675781 35.667969 50.746094 35.667969 49.597656 L 35.667969 46.359375 C 35.667969 45.214844 36.328125 44.941406 37.140625 45.753906 L 41.59375 50.207031 C 42.402344 51.015625 43.0625 50.746094 43.0625 49.597656 L 43.0625 31.574219 C 43.0625 30.425781 42.402344 30.15625 41.59375 30.964844 L 37.140625 35.421875 C 36.328125 36.230469 35.667969 35.960938 35.667969 34.8125 L 35.667969 31.574219 C 35.667969 30.425781 34.738281 29.496094 33.589844 29.496094 L 8.175781 29.496094 C 7.027344 29.496094 6.097656 30.425781 6.097656 31.574219 L 6.097656 49.597656 C 6.097656 50.746094 7.027344 51.675781 8.175781 51.675781 Z M 8.175781 51.675781 "/>
<g clip-path="url(#clip-0)">
<path fill="none" stroke-width="4.98138" stroke-linecap="butt" stroke-linejoin="miter" stroke="rgb(0%, 0%, 0%)" stroke-opacity="1" stroke-miterlimit="10" d="M 3.984397 -0.00057755 L 52.707676 -0.00057755 C 54.909435 -0.00057755 56.691811 1.781799 56.691811 3.983558 L 56.691811 10.191919 C 56.691811 12.386189 57.957448 12.910417 59.515155 11.35271 L 68.052588 2.815278 C 69.602806 1.265059 70.868443 1.781799 70.868443 3.983558 L 70.868443 38.537694 C 70.868443 40.739453 69.602806 41.256192 68.052588 39.705974 L 59.515155 31.161053 C 57.957448 29.610834 56.691811 30.127574 56.691811 32.329333 L 56.691811 38.537694 C 56.691811 40.739453 54.909435 42.521829 52.707676 42.521829 L 3.984397 42.521829 C 1.782638 42.521829 0.000261215 40.739453 0.000261215 38.537694 L 0.000261215 3.983558 C 0.000261215 1.781799 1.782638 -0.00057755 3.984397 -0.00057755 Z M 3.984397 -0.00057755 " transform="matrix(0.5216, 0, 0, -0.5216, 6.09752, 51.67548)"/>
</g>
<g clip-path="url(#clip-1)">
<path fill="none" stroke-width="0.99628" stroke-linecap="butt" stroke-linejoin="miter" stroke="rgb(0%, 0%, 0%)" stroke-opacity="1" stroke-miterlimit="10" d="M 125.127031 -40.089781 L 85.041094 0.0000625 L 125.127031 40.089906 " transform="matrix(1, 0, 0, -1, 24.58, 40.586)"/>
</g>
<g clip-path="url(#clip-2)">
<path fill="none" stroke-width="0.99628" stroke-linecap="butt" stroke-linejoin="miter" stroke="rgb(75%, 75%, 75%)" stroke-opacity="1" stroke-dasharray="2.98883 2.98883" stroke-miterlimit="10" d="M 125.127031 40.089906 L 165.216875 0.0000625 L 125.127031 -40.089781 " transform="matrix(1, 0, 0, -1, 24.58, 40.586)"/>
</g>
<path fill="none" stroke-width="0.99628" stroke-linecap="butt" stroke-linejoin="miter" stroke="rgb(0%, 0%, 0%)" stroke-opacity="1" stroke-miterlimit="10" d="M 105.084063 20.043031 L 86.205156 38.921937 " transform="matrix(1, 0, 0, -1, 24.58, 40.586)"/>
<path fill-rule="nonzero" fill="rgb(0%, 0%, 0%)" fill-opacity="1" stroke-width="0.99628" stroke-linecap="butt" stroke-linejoin="miter" stroke="rgb(0%, 0%, 0%)" stroke-opacity="1" stroke-miterlimit="10" d="M -6.504503 2.920876 L 0.373282 -0.00149201 L -6.504503 -2.918335 Z M -6.504503 2.920876 " transform="matrix(-0.7071, -0.7071, -0.7071, 0.7071, 110.78633, 1.66344)"/>
<g clip-path="url(#clip-3)">
<path fill="none" stroke-width="0.99628" stroke-linecap="butt" stroke-linejoin="miter" stroke="rgb(0%, 0%, 0%)" stroke-opacity="1" stroke-miterlimit="10" d="M 145.173906 20.043031 L 164.052813 38.921937 " transform="matrix(1, 0, 0, -1, 24.58, 40.586)"/>
</g>
<path fill-rule="nonzero" fill="rgb(0%, 0%, 0%)" fill-opacity="1" d="M 181.96875 4.199219 L 188.894531 1.398438 L 186.097656 8.328125 Z M 181.96875 4.199219 "/>
<g clip-path="url(#clip-4)">
<path fill="none" stroke-width="0.99628" stroke-linecap="butt" stroke-linejoin="miter" stroke="rgb(0%, 0%, 0%)" stroke-opacity="1" stroke-miterlimit="10" d="M -6.504383 2.918216 L 0.373401 0.00137268 L -6.504383 -2.920995 Z M -6.504383 2.918216 " transform="matrix(0.7071, -0.7071, -0.7071, -0.7071, 188.63147, 1.66344)"/>
</g>
<g clip-path="url(#clip-5)">
<path fill="none" stroke-width="0.99628" stroke-linecap="butt" stroke-linejoin="miter" stroke="rgb(0%, 0%, 0%)" stroke-opacity="1" stroke-miterlimit="10" d="M 145.173906 -20.042906 L 164.052813 -38.921813 " transform="matrix(1, 0, 0, -1, 24.58, 40.586)"/>
</g>
<path fill-rule="nonzero" fill="rgb(0%, 0%, 0%)" fill-opacity="1" d="M 186.097656 72.84375 L 188.894531 79.773438 L 181.96875 76.972656 Z M 186.097656 72.84375 "/>
<g clip-path="url(#clip-6)">
<path fill="none" stroke-width="0.99628" stroke-linecap="butt" stroke-linejoin="miter" stroke="rgb(0%, 0%, 0%)" stroke-opacity="1" stroke-miterlimit="10" d="M -6.504472 2.921083 L 0.373313 -0.0012843 L -6.504472 -2.918128 Z M -6.504472 2.921083 " transform="matrix(0.7071, 0.7071, 0.7071, -0.7071, 188.63147, 79.50856)"/>
</g>
<g clip-path="url(#clip-7)">
<path fill="none" stroke-width="0.99628" stroke-linecap="butt" stroke-linejoin="miter" stroke="rgb(0%, 0%, 0%)" stroke-opacity="1" stroke-miterlimit="10" d="M 105.084063 -20.042906 L 86.205156 -38.921813 " transform="matrix(1, 0, 0, -1, 24.58, 40.586)"/>
</g>
<path fill-rule="nonzero" fill="rgb(0%, 0%, 0%)" fill-opacity="1" d="M 117.449219 76.972656 L 110.523438 79.773438 L 113.320312 72.84375 Z M 117.449219 76.972656 "/>
<g clip-path="url(#clip-8)">
<path fill="none" stroke-width="0.99628" stroke-linecap="butt" stroke-linejoin="miter" stroke="rgb(0%, 0%, 0%)" stroke-opacity="1" stroke-miterlimit="10" d="M -6.504591 2.918247 L 0.373193 0.00140362 L -6.504591 -2.920964 Z M -6.504591 2.918247 " transform="matrix(-0.7071, 0.7071, 0.7071, 0.7071, 110.78633, 79.50856)"/>
</g>
</svg>
