<?xml version="1.0" encoding="UTF-8"?>
<svg xmlns="http://www.w3.org/2000/svg" xmlns:xlink="http://www.w3.org/1999/xlink" width="120.802pt" height="125.435pt" viewBox="0 0 120.802 125.435">
<defs>
<clipPath id="clip-0">
<path clip-rule="nonzero" d="M 8 29 L 73 29 L 73 125.433594 L 8 125.433594 Z M 8 29 "/>
</clipPath>
<clipPath id="clip-1">
<path clip-rule="nonzero" d="M 44 32 L 117 32 L 117 125.433594 L 44 125.433594 Z M 44 32 "/>
</clipPath>
<clipPath id="clip-2">
<path clip-rule="nonzero" d="M 24 99 L 73 99 L 73 125.433594 L 24 125.433594 Z M 24 99 "/>
</clipPath>
<clipPath id="clip-3">
<path clip-rule="nonzero" d="M 24 103 L 60 103 L 60 125.433594 L 24 125.433594 Z M 24 103 "/>
</clipPath>
<clipPath id="clip-4">
<path clip-rule="nonzero" d="M 44 99 L 90 99 L 90 125.433594 L 44 125.433594 Z M 44 99 "/>
</clipPath>
<clipPath id="clip-5">
<path clip-rule="nonzero" d="M 54 104 L 90 104 L 90 125.433594 L 54 125.433594 Z M 54 104 "/>
</clipPath>
<clipPath id="clip-6">
<path clip-rule="nonzero" d="M 87 81 L 120.800781 81 L 120.800781 120 L 87 120 Z M 87 81 "/>
</clipPath>
<clipPath id="clip-7">
<path clip-rule="nonzero" d="M 97 85 L 120.800781 85 L 120.800781 121 L 97 121 Z M 97 85 "/>
</clipPath>
<clipPath id="clip-8">
<path clip-rule="nonzero" d="M 87 32 L 120.800781 32 L 120.800781 71 L 87 71 Z M 87 32 "/>
</clipPath>
<clipPath id="clip-9">
<path clip-rule="nonzero" d="M 97 36 L 120.800781 36 L 120.800781 72 L 97 72 Z M 97 36 "/>
</clipPath>
</defs>
<g clip-path="url(#clip-0)">
<path fill="none" stroke-width="0.99628" stroke-linecap="butt" stroke-linejoin="miter" stroke="rgb(0%, 0%, 0%)" stroke-opacity="1" stroke-miterlimit="10" d="M -39.937063 -22.803187 L -3.49175 -44.518031 L -3.49175 4.579625 L -39.937063 26.294469 Z M -39.937063 -22.803187 " transform="matrix(1, 0, 0, -1, 62.148, 69.564)"/>
</g>
<path fill="none" stroke-width="0.99628" stroke-linecap="butt" stroke-linejoin="miter" stroke="rgb(0%, 0%, 0%)" stroke-opacity="1" stroke-miterlimit="10" d="M 3.492625 -4.580531 L 39.934031 -26.295375 L 39.934031 22.802281 L 3.492625 44.517125 Z M 3.492625 -4.580531 " transform="matrix(1, 0, 0, -1, 62.148, 69.564)"/>
<g clip-path="url(#clip-1)">
<path fill="none" stroke-width="0.99628" stroke-linecap="butt" stroke-linejoin="miter" stroke="rgb(0%, 0%, 0%)" stroke-opacity="1" stroke-miterlimit="10" d="M -3.49175 -44.518031 L 39.934031 -26.295375 L 39.934031 22.802281 L -3.49175 4.579625 Z M -3.49175 -44.518031 " transform="matrix(1, 0, 0, -1, 62.148, 69.564)"/>
</g>
<path fill="none" stroke-width="0.99628" stroke-linecap="butt" stroke-linejoin="miter" stroke="rgb(0%, 0%, 0%)" stroke-opacity="1" stroke-miterlimit="10" d="M -39.937063 -22.803187 L 3.492625 -4.580531 L 3.492625 44.517125 L -39.937063 26.294469 Z M -39.937063 -22.803187 " transform="matrix(1, 0, 0, -1, 62.148, 69.564)"/>
<path fill="none" stroke-width="0.99628" stroke-linecap="butt" stroke-linejoin="miter" stroke="rgb(0%, 0%, 100%)" stroke-opacity="1" stroke-miterlimit="10" d="M -39.937063 -22.803187 L -60.128469 -31.275844 " transform="matrix(1, 0, 0, -1, 62.148, 69.564)"/>
<path fill-rule="nonzero" fill="rgb(0%, 0%, 100%)" fill-opacity="1" stroke-width="0.99628" stroke-linecap="butt" stroke-linejoin="miter" stroke="rgb(0%, 0%, 100%)" stroke-opacity="1" stroke-miterlimit="10" d="M -6.503725 2.919949 L 0.375262 0.00000118436 L -6.505725 -2.92107 Z M -6.503725 2.919949 " transform="matrix(-0.92209, 0.38686, 0.38686, 0.92209, 2.0179, 100.8392)"/>
<g clip-path="url(#clip-2)">
<path fill="none" stroke-width="0.99628" stroke-linecap="butt" stroke-linejoin="miter" stroke="rgb(0%, 0%, 100%)" stroke-opacity="1" stroke-miterlimit="10" d="M -3.49175 -44.518031 L -23.687063 -52.990687 " transform="matrix(1, 0, 0, -1, 62.148, 69.564)"/>
</g>
<path fill-rule="nonzero" fill="rgb(0%, 0%, 100%)" fill-opacity="1" d="M 45.585938 122.730469 L 38.117188 122.699219 L 43.328125 117.34375 Z M 45.585938 122.730469 "/>
<g clip-path="url(#clip-3)">
<path fill="none" stroke-width="0.99628" stroke-linecap="butt" stroke-linejoin="miter" stroke="rgb(0%, 0%, 100%)" stroke-opacity="1" stroke-miterlimit="10" d="M -6.50278 2.920175 L 0.372605 0.00173836 L -6.50478 -2.920844 Z M -6.50278 2.920175 " transform="matrix(-0.92209, 0.38686, 0.38686, 0.92209, 38.46009, 122.55347)"/>
</g>
<path fill="none" stroke-width="0.99628" stroke-linecap="butt" stroke-linejoin="miter" stroke="rgb(0%, 0%, 100%)" stroke-opacity="1" stroke-miterlimit="10" d="M -3.49175 4.579625 L -23.687063 -3.893031 " transform="matrix(1, 0, 0, -1, 62.148, 69.564)"/>
<path fill-rule="nonzero" fill="rgb(0%, 0%, 100%)" fill-opacity="1" stroke-width="0.99628" stroke-linecap="butt" stroke-linejoin="miter" stroke="rgb(0%, 0%, 100%)" stroke-opacity="1" stroke-miterlimit="10" d="M -6.502543 2.920741 L 0.372842 0.00230434 L -6.504543 -2.920278 Z M -6.502543 2.920741 " transform="matrix(-0.92209, 0.38686, 0.38686, 0.92209, 38.46009, 73.4552)"/>
<path fill="none" stroke-width="0.99628" stroke-linecap="butt" stroke-linejoin="miter" stroke="rgb(0%, 0%, 100%)" stroke-opacity="1" stroke-miterlimit="10" d="M -39.937063 26.294469 L -60.128469 17.821813 " transform="matrix(1, 0, 0, -1, 62.148, 69.564)"/>
<path fill-rule="nonzero" fill="rgb(0%, 0%, 100%)" fill-opacity="1" stroke-width="0.99628" stroke-linecap="butt" stroke-linejoin="miter" stroke="rgb(0%, 0%, 100%)" stroke-opacity="1" stroke-miterlimit="10" d="M -6.503503 2.920478 L 0.375484 0.000530281 L -6.505503 -2.920541 Z M -6.503503 2.920478 " transform="matrix(-0.92209, 0.38686, 0.38686, 0.92209, 2.0179, 51.74097)"/>
<g clip-path="url(#clip-4)">
<path fill="none" stroke-width="0.99628" stroke-linecap="butt" stroke-linejoin="miter" stroke="rgb(100%, 0%, 0%)" stroke-opacity="1" stroke-miterlimit="10" d="M -3.49175 -44.518031 L 13.312937 -54.52975 " transform="matrix(1, 0, 0, -1, 62.148, 69.564)"/>
</g>
<path fill-rule="nonzero" fill="rgb(100%, 0%, 0%)" fill-opacity="1" d="M 71.367188 118.257812 L 75.78125 124.285156 L 68.378906 123.273438 Z M 71.367188 118.257812 "/>
<g clip-path="url(#clip-5)">
<path fill="none" stroke-width="0.99628" stroke-linecap="butt" stroke-linejoin="miter" stroke="rgb(100%, 0%, 0%)" stroke-opacity="1" stroke-miterlimit="10" d="M -6.502866 2.919118 L 0.374636 0.00064576 L -6.502562 -2.919477 Z M -6.502866 2.919118 " transform="matrix(0.85902, 0.51186, 0.51186, -0.85902, 75.4591, 124.09395)"/>
</g>
<g clip-path="url(#clip-6)">
<path fill="none" stroke-width="0.99628" stroke-linecap="butt" stroke-linejoin="miter" stroke="rgb(100%, 0%, 0%)" stroke-opacity="1" stroke-miterlimit="10" d="M 39.934031 -26.295375 L 56.738719 -36.307094 " transform="matrix(1, 0, 0, -1, 62.148, 69.564)"/>
</g>
<path fill-rule="nonzero" fill="rgb(100%, 0%, 0%)" fill-opacity="1" d="M 114.796875 100.035156 L 119.210938 106.0625 L 111.804688 105.050781 Z M 114.796875 100.035156 "/>
<g clip-path="url(#clip-7)">
<path fill="none" stroke-width="0.99628" stroke-linecap="butt" stroke-linejoin="miter" stroke="rgb(100%, 0%, 0%)" stroke-opacity="1" stroke-miterlimit="10" d="M -6.503409 2.920629 L 0.374093 0.00215731 L -6.50646 -2.919965 Z M -6.503409 2.920629 " transform="matrix(0.85902, 0.51186, 0.51186, -0.85902, 118.88848, 105.87287)"/>
</g>
<g clip-path="url(#clip-8)">
<path fill="none" stroke-width="0.99628" stroke-linecap="butt" stroke-linejoin="miter" stroke="rgb(100%, 0%, 0%)" stroke-opacity="1" stroke-miterlimit="10" d="M 39.934031 22.802281 L 56.738719 12.790563 " transform="matrix(1, 0, 0, -1, 62.148, 69.564)"/>
</g>
<path fill-rule="nonzero" fill="rgb(100%, 0%, 0%)" fill-opacity="1" d="M 114.796875 50.9375 L 119.210938 56.964844 L 111.804688 55.953125 Z M 114.796875 50.9375 "/>
<g clip-path="url(#clip-9)">
<path fill="none" stroke-width="0.99628" stroke-linecap="butt" stroke-linejoin="miter" stroke="rgb(100%, 0%, 0%)" stroke-opacity="1" stroke-miterlimit="10" d="M -6.50311 2.920128 L 0.374392 0.00165582 L -6.506161 -2.920466 Z M -6.50311 2.920128 " transform="matrix(0.85902, 0.51186, 0.51186, -0.85902, 118.88848, 56.77463)"/>
</g>
<path fill="none" stroke-width="0.99628" stroke-linecap="butt" stroke-linejoin="miter" stroke="rgb(100%, 0%, 0%)" stroke-opacity="1" stroke-miterlimit="10" d="M -3.49175 4.579625 L 13.312937 -5.432094 " transform="matrix(1, 0, 0, -1, 62.148, 69.564)"/>
<path fill-rule="nonzero" fill="rgb(100%, 0%, 0%)" fill-opacity="1" stroke-width="0.99628" stroke-linecap="butt" stroke-linejoin="miter" stroke="rgb(100%, 0%, 0%)" stroke-opacity="1" stroke-miterlimit="10" d="M -6.502562 2.918608 L 0.37494 0.000135674 L -6.502258 -2.919987 Z M -6.502562 2.918608 " transform="matrix(0.85902, 0.51186, 0.51186, -0.85902, 75.4591, 74.9957)"/>
<path fill="none" stroke-width="0.99628" stroke-linecap="butt" stroke-linejoin="miter" stroke="rgb(0%, 50%, 0%)" stroke-opacity="1" stroke-miterlimit="10" d="M -39.937063 26.294469 L -39.937063 49.196813 " transform="matrix(1, 0, 0, -1, 62.148, 69.564)"/>
<path fill-rule="nonzero" fill="rgb(0%, 50%, 0%)" fill-opacity="1" stroke-width="0.99628" stroke-linecap="butt" stroke-linejoin="miter" stroke="rgb(0%, 50%, 0%)" stroke-opacity="1" stroke-miterlimit="10" d="M -6.503094 2.919251 L 0.371906 0.0012825 L -6.503094 -2.920592 Z M -6.503094 2.919251 " transform="matrix(0, -1, -1, 0, 22.21222, 20.368)"/>
<path fill="none" stroke-width="0.99628" stroke-linecap="butt" stroke-linejoin="miter" stroke="rgb(0%, 50%, 0%)" stroke-opacity="1" stroke-miterlimit="10" d="M -3.49175 4.579625 L -3.49175 27.481969 " transform="matrix(1, 0, 0, -1, 62.148, 69.564)"/>
<path fill-rule="nonzero" fill="rgb(0%, 50%, 0%)" fill-opacity="1" stroke-width="0.99628" stroke-linecap="butt" stroke-linejoin="miter" stroke="rgb(0%, 50%, 0%)" stroke-opacity="1" stroke-miterlimit="10" d="M -6.503677 2.920035 L 0.375229 -0.00184 L -6.503677 -2.919809 Z M -6.503677 2.920035 " transform="matrix(0, -1, -1, 0, 58.65441, 42.08226)"/>
<path fill="none" stroke-width="0.99628" stroke-linecap="butt" stroke-linejoin="miter" stroke="rgb(0%, 50%, 0%)" stroke-opacity="1" stroke-miterlimit="10" d="M 39.934031 22.802281 L 39.934031 45.704625 " transform="matrix(1, 0, 0, -1, 62.148, 69.564)"/>
<path fill-rule="nonzero" fill="rgb(0%, 50%, 0%)" fill-opacity="1" stroke-width="0.99628" stroke-linecap="butt" stroke-linejoin="miter" stroke="rgb(0%, 50%, 0%)" stroke-opacity="1" stroke-miterlimit="10" d="M -6.506007 2.919718 L 0.372899 0.00174875 L -6.506007 -2.920126 Z M -6.506007 2.919718 " transform="matrix(0, -1, -1, 0, 102.08378, 23.86118)"/>
<path fill="none" stroke-width="0.99628" stroke-linecap="butt" stroke-linejoin="miter" stroke="rgb(0%, 50%, 0%)" stroke-opacity="1" stroke-miterlimit="10" d="M 3.492625 44.517125 L 3.492625 67.415563 " transform="matrix(1, 0, 0, -1, 62.148, 69.564)"/>
<path fill-rule="nonzero" fill="rgb(0%, 50%, 0%)" fill-opacity="1" stroke-width="0.99628" stroke-linecap="butt" stroke-linejoin="miter" stroke="rgb(0%, 50%, 0%)" stroke-opacity="1" stroke-miterlimit="10" d="M -6.505424 2.918934 L 0.373482 0.000965 L -6.505424 -2.92091 Z M -6.505424 2.918934 " transform="matrix(0, -1, -1, 0, 65.64159, 2.14692)"/>
</svg>
